#!OML:ASF F:\VICON\USERDATA\INSTALL\rory3\rory3.ASF
:FULLY-SPECIFIED
:DEGREES
57
root -0.15178454459899832 18.246140210321784 20.705395674780725 6.812559801054787 -2.0865560145881012 -1.8438340441831427
lfemur 25.880415209210174 -2.885314214442367 -26.22992852895146
ltibia 25.58680100792165
lfoot -4.737852884618725 -5.408941576003619
ltoes -21.422058754264924
rfemur -54.715928026500535 -5.018900177546674 23.265079750083547
rtibia 129.6835418617626
rfoot -4.055849347944101 4.828266044358517
rtoes -17.883079594060536
lowerback nan -0.9650023400482185 -2.7761498477748536
upperback -1.1691830875419562 -2.6032054097452653 2.8297972127799325
thorax -8.53970015394781 -1.5019291363488836 6.323637056355222
lowerneck -22.890355482362043 -2.291944147796788 -1.4728317433674551
upperneck 11.874432363647088 -3.2470186434484254 4.181178391732095
head 7.410531885089113 -1.1697310640038974 1.2142097929158369
lclavicle -1.3550979005578302e-14 3.475647028356626e-15
lhumerus -27.061542109629226 -22.956998618433964 96.44642026709703
lradius 128.8505372940377
lwrist 43.85697862070276
lhand -21.596449992080224 2.832931853900139
lfingers nan
lthumb 4.911997910371196 33.011364205012505
rclavicle -1.3723324146777121e-14 4.0376796794164676e-15
rhumerus -69.47651736143352 4.635713004936985 -95.21700753384641
rradius 101.34048956418168
rwrist -10.845717332300948
rhand -14.312671669671293 nan
rfingers nan
rthumb 11.395332345081746 10.127352014269958
58
root -0.11931567835781723 18.34025204913365 21.322412057555745 6.956928543967825 -2.761032506242519 -2.1166717370496437
lfemur 26.312835686362053 -2.8787359952816036 -26.202576823468217
ltibia 23.976372519514026
lfoot 2.026741467008464 -7.159610536965389
ltoes -20.574332695324294
rfemur -54.03340292618846 -4.252813039988772 23.244000250848202
rtibia 124.80616454768952
rfoot -5.149438960637414 4.101739032450102
rtoes -19.46742697919924
lowerback nan -1.08595190500106 -2.5649099854324917
upperback -1.740234001172503 -2.6485995176178623 2.897816375902278
thorax -9.112019145399865 -1.4562177674118473 6.163763625741039
lowerneck -22.23962187789465 -2.2209703243713905 -1.5000477624949058
upperneck 11.939574816056371 -3.1720637746305265 4.131841745469226
head 7.356306857050268 -1.1606858354623144 1.1986304656947464
lclavicle -1.915960145394623e-14 9.897541790947657e-16
lhumerus -27.75040864378842 -23.592997282160667 96.45447972476097
lradius 128.93414610300755
lwrist 42.06782834490897
lhand -21.884953446588874 3.3721981909935907
lfingers nan
lthumb 4.637662001709506 33.569407053050355
rclavicle -1.9267557630240264e-14 1.4514686752780785e-15
rhumerus -70.00869436845102 4.086678203248796 -94.63852941132708
rradius 101.6226219586465
rwrist -10.4365383562845
rhand -13.82663168382356 nan
rfingers nan
rthumb 11.86110618101777 9.729208816250196
59
root -0.11491107575463919 18.39383147639179 22.52475866124822 6.647017437874097 -3.808216395533714 -2.5432124497418886
lfemur 26.79763450513418 -2.5001084718155724 -25.95735503875507
ltibia 22.430408957156242
lfoot 7.551687836804191 -7.842177782613014
ltoes -22.88153331956527
rfemur -53.2431140828305 -3.1244510965375936 23.58929266672567
rtibia 119.8448391016083
rfoot -6.23865557059428 3.919553201307152
rtoes -26.374594672668323
lowerback nan -0.8865913051198441 -2.4048631520655332
upperback -2.3519216475002924 -2.3754404820968746 3.0445872912577796
thorax -10.371564081366845 -1.160463130403844 6.003791822400314
lowerneck -21.27303298521828 -2.0778489420057165 -1.5341706022544188
upperneck 12.030550638537955 -2.997072253795619 4.103560643747739
head 7.26268749672285 -1.1130479941990226 1.2041831374627034
lclavicle -1.9023873580953623e-14 4.327271641177804e-15
lhumerus -28.533359405740736 -24.212827882092736 96.46085541317196
lradius 128.61888420296583
lwrist 40.50772263845961
lhand -21.816554115732018 3.0274139316803983
lfingers nan
lthumb 4.689841371403038 33.211813107172745
rclavicle -1.908917736264197e-14 4.726599635600525e-15
rhumerus -70.5489908821952 3.528904134648335 -94.28307004809217
rradius 101.75712655176113
rwrist -9.959087953021541
rhand -13.850116932965614 nan
rfingers nan
rthumb 11.824042741795337 9.460867405876147
60
root -0.08983995347957005 18.42574544920137 23.41432161538913 6.4309995297429765 -4.2503194419337795 -2.8379518621621562
lfemur 27.391172972357428 -2.762107065052145 -25.858255279901154
ltibia 21.06044428967255
lfoot 12.415710013302043 -8.633551464496943
ltoes -23.290583101428492
rfemur -52.53492462907194 -2.483202106337232 23.91401039312443
rtibia 114.70244393090286
rfoot -6.434478337658047 2.6466842866361207
rtoes -32.78747928860604
lowerback nan -0.8661317053217569 -2.1910552980917273
upperback -2.200465403764311 -2.326880098026402 3.2130044767988615
thorax -9.792525007158986 -1.0745732987364884 5.804712512766606
lowerneck -21.27968023122127 -1.970900333567378 -1.377855742262231
upperneck 12.172268606332533 -2.859979513649537 3.9329853908968393
head 7.282743464952376 -1.1125009949239986 1.1345076320949248
lclavicle -2.254298930820571e-14 2.4447269181763396e-14
lhumerus -28.562858187065117 -25.011808246814404 96.376258533294
lradius 128.17655973898405
lwrist 39.219503568996224
lhand -21.71256014875994 2.3257977252421385
lfingers nan
lthumb 4.761167737135735 32.48454131340285
rclavicle -2.278296602240461e-14 2.4627049831982014e-14
rhumerus -70.15756751378746 2.9769164021962693 -93.70033557238756
rradius 101.9136827808941
rwrist -9.414026508382165
rhand -13.99142355557266 nan
rfingers nan
rthumb 11.679481668962069 8.810403273250248
61
root -0.038383264476896384 18.448144562037243 23.331411991136743 6.513487077989106 -3.997449861245351 -2.818779371582289
lfemur 27.409084384036287 -3.7428216535326677 -26.230230703094094
ltibia 20.08698186918788
lfoot 17.07117374817508 -10.772267970260128
ltoes -25.342611282092754
rfemur -51.91109859627748 -2.542277682137902 23.7618825364741
rtibia 109.46274588974676
rfoot -6.6092565891431105 1.2030888170391423
rtoes -34.43008254780555
lowerback nan -1.0956617510410105 -1.9863594162632685
upperback -2.646935681471068 -2.5363490716310473 3.375015955370471
thorax -10.222692327744863 -1.117412184910069 5.869192854007146
lowerneck -21.229465247611866 -1.97805066846658 -1.2871252288000044
upperneck 12.766771590171984 -2.7692747082989015 3.556882960071806
head 7.404952178234493 -1.1541043051153417 0.9953956457179534
lclavicle 2.0251277729152862e-14 -5.319918927565375e-14
lhumerus -29.534618889851025 -25.349110081130945 96.81846550227782
lradius 127.86707570662183
lwrist 37.59568991472527
lhand -21.539154354411256 3.100629630212108
lfingers nan
lthumb 4.908991499660776 33.251267924223164
rclavicle 2.0308108512819325e-14 -5.337343109606964e-14
rhumerus -70.33708181759175 2.4868205728126567 -92.82572576756706
rradius 102.22931713196786
rwrist -9.120891731696334
rhand -13.255766836675022 nan
rfingers nan
rthumb 12.397971432602493 8.654454427185115
